<svg width="111" height="31" viewBox="0 0 111 31" fill="none" xmlns="http://www.w3.org/2000/svg">
<path d="M4.26326 27.7584L15.1062 23.3231M2 15.0263L13.8163 14.5823M5.07307 2L15.6484 6.14445" stroke="#F4E3D9" stroke-width="2.26415" stroke-linecap="round"/>
<path d="M42.5066 25.1447H26V5H30.51V21.0857H42.5066V25.1447Z" fill="#F4E3D9"/>
<path d="M48.9522 25.4454C45.705 25.4454 43.7506 23.942 43.7506 21.4164C43.7506 19.1915 45.4043 17.8084 48.6214 17.4777L55.0858 16.8162V16.2449C55.0858 14.2906 54.2139 13.7494 51.8085 13.7494C49.5234 13.7494 48.5914 14.3507 48.5914 16.0645V16.1848H44.0513V16.0946C44.0513 12.3663 47.1782 9.78061 52.1392 9.78061C57.1604 9.78061 59.5357 12.3663 59.5357 16.3051V25.1447H55.3263V21.687H55.0858C54.3943 24.0322 52.2896 25.4454 48.9522 25.4454ZM48.2907 21.1158C48.2907 21.9276 48.9221 22.2583 50.245 22.2583C53.3118 22.2583 54.9655 21.5367 55.0858 19.402L49.8542 20.0033C48.7718 20.0935 48.2907 20.3942 48.2907 21.1158Z" fill="#F4E3D9"/>
<path d="M64.7081 30.256H62.2426V26.167H65.9408C67.0533 26.167 67.5343 25.8663 67.835 25.2048L60.4687 10.0813H65.58L68.7671 16.9666L70.0299 20.5144H70.3305L71.5332 16.9365L74.3896 10.0813H79.4107L71.9541 26.2271C70.5109 29.3841 68.4965 30.256 64.7081 30.256Z" fill="#F4E3D9"/>
<path d="M85.0059 25.1447H80.4959V5H85.0059V25.1447Z" fill="#F4E3D9"/>
<path d="M91.9969 25.4454C88.7497 25.4454 86.7954 23.942 86.7954 21.4164C86.7954 19.1915 88.449 17.8084 91.6662 17.4777L98.1305 16.8162V16.2449C98.1305 14.2906 97.2586 13.7494 94.8532 13.7494C92.5682 13.7494 91.6361 14.3507 91.6361 16.0645V16.1848H87.096V16.0946C87.096 12.3663 90.223 9.78061 95.184 9.78061C100.205 9.78061 102.58 12.3663 102.58 16.3051V25.1447H98.371V21.687H98.1305C97.439 24.0322 95.3343 25.4454 91.9969 25.4454ZM91.3354 21.1158C91.3354 21.9276 91.9668 22.2583 93.2898 22.2583C96.3566 22.2583 98.0102 21.5367 98.1305 19.402L92.8989 20.0033C91.8165 20.0935 91.3354 20.3942 91.3354 21.1158Z" fill="#F4E3D9"/>
<path d="M110.369 18.53H105.829C105.829 16.0645 105.197 9.41981 105.197 7.10467V5H111V7.10467C111 9.41981 110.369 16.0946 110.369 18.53ZM110.669 25.1447H105.528V20.2438H110.669V25.1447Z" fill="#F4E3D9"/>
</svg>
